<?xml version="1.0" encoding="utf-8"?><svg xmlns="http://www.w3.org/2000/svg" x="0px" y="0px" viewBox="0 0 20 33.1"><path d="M12.4 33H6c-.5 0-.9-.3-.9-.9V20.8H1c-.5 0-.9-.3-.9-.9v-6.5c0-.5.4-.9.9-.9h4V8.8c0-2.2.9-4.5 2.7-6.2s4-2.6 6.4-2.6h5c.5 0 .9.4.9.9v6.2c0 .7-.4 1.2-.9 1.2h-5c-.2 0-.4 0-.5.2-.2.2-.2.3-.2.3v3.6H19c.4 0 .5.2.7.3.4.3.5.7.4 1L18.4 20c-.2.3-.5.7-.9.7h-4V32c0 .5-.5 1-1.1 1zm-5.5-1.9h4.7V19.8c0-.5.4-.9.9-.9h4.1l1.1-4.3h-5.4c-.5 0-.9-.3-.9-.9v-5c0-.7.4-1.4.7-1.7.5-.5 1.1-.7 1.8-.7h4.3V2.1h-4c-2 0-3.8.7-5.2 2.1C7.6 5.4 6.9 7.1 6.9 9v4.5c0 .5-.4.9-.9.9H2v4.3h4c.5 0 .9.3.9.9v11.5z"/></svg>
