<svg xmlns="http://www.w3.org/2000/svg" viewBox="0 0 20 21"><path d="M17.9 10.5H9.4v1.2h8.5l-2.1 2.1.9.9 3.1-3.1c.1-.1.2-.3.2-.5s-.1-.3-.2-.5l-3.1-3.1-.9.9 2.1 2.1zM8.2 20.5v-6.2c0-.2-.1-.3-.2-.4-.1-.1-.3-.2-.4-.2H3.2c0 .3.1.6.4.8.2.2.5.4.8.4h2.5v5H3.2c-.2 0-.5 0-.7-.1-.2-.1-.4-.2-.6-.4-.2-.2-.3-.4-.4-.6-.1-.2-.2-.4-.2-.7v-14c0-.5.2-.9.5-1.3.3-.3.7-.5 1.2-.5h3.9v5H4.5c-.3 0-.6.1-.8.4-.3.2-.4.5-.4.8h4.4c.2 0 .3-.1.4-.2.1-.1.2-.3.2-.4V1.6c0-.2-.1-.3-.3-.4-.1-.1-.3-.2-.4-.2H3.2c-.4 0-.8.1-1.2.2-.4.2-.7.4-1 .6-.3.3-.5.6-.7 1-.1.3-.2.7-.2 1.1v13.9c0 .4 0 .8.2 1.2.1.4.3.7.6 1 .3.3.6.5 1 .7.3.2.7.3 1.1.3h4.8c.1 0 .1-.1.2-.1s.1-.1.1-.2.1-.1.1-.2z"/></svg>