<svg xmlns="http://www.w3.org/2000/svg" xmlns:xlink="http://www.w3.org/1999/xlink" viewBox="-384 262 191 38"><defs><path id="a" d="M-384 262.2h33.3v37.6H-384z"/></defs><clipPath id="b"><use xlink:href="#a" overflow="visible"/></clipPath><g clip-path="url(#b)"><path fill="#FDC305" d="M-377.9 282.9v-2.3c6.7-.9 13.4-1.4 20.2-1.3 0 .6 0 1.2-.1 1.8 1.9-.9 3.9-1.5 6-1.8-1.3-3.4-3.7-6.3-6.8-8.2-3.1-1.9-6.8-2.7-10.4-2.4-3.6.4-7 1.9-9.7 4.4-2.7 2.5-4.4 5.8-5 9.4l5.8.4zM-356.8 286.4c-1.2 1.3-1.4 1.2-1.4 3.5v9.2c2.3-1.5 4.2-3.6 5.5-6 1.3-2.4 2-5.1 2-7.9 0-1-.1-2.1-.3-3.1-2.1 1.2-4 2.7-5.8 4.3zM-377.6 287.9s-3.8-1.4-5.2-1.8l-1.2-.3c.1 2.9 1 5.7 2.5 8.1 1.5 2.5 3.7 4.5 6.2 5.9l-2.3-11.9z"/><path fill="#F06351" d="M-357.7 279.3c0-5.5-.4-11-1.4-16.5 0 0-.1-1.3-.9-.2-.6 1.2-1 2.6-1.2 3.9-4.3-.3-8.5-.2-12.8.3-.8-2.7-2.2-3.9-2.9-3.7-.7.3-.7 3.3-.7 3.3l-.3 14.1c6.7-.8 13.4-1.2 20.2-1.2z"/><path d="M-371.6 276.2c0-.1 1 .7 1.4.9.4.2.6.4.6.6 0 .2-.3.3-.6.3-.4 0-.9-.1-1-.3h1.2c-.6-.4-1.1-.9-1.6-1.5zM-364.1 276.3l-1.1 1.3c0 .1-.2.3.2.3l1.2-.3c.1 0 .1-.2-.1-.2s-.7 0-1 .1l.8-1.2s.1-.1 0 0zM-367.3 282.4c.5-.2.8-.6 1.1-1 .3-.6 0-.9-.4-1-.6-.1-1.2 0-1.7.3-.4.4-.3.7-.1 1 .4.3.7.5 1.1.7z"/><path fill="#F06351" d="M-367.6 283.6c-.1.2-.3.4-.5.6-.3.2-.6.4-1 .4-.5 0-1-.1-1.5-.4-.2-.1-.4-.3-.5-.4-.1-.1-.2-.2-.4-.3 0 0 .8 4.1 2.6 4.8s2.1-.8 2.2-1.1c.1-1.1-.2-2.3-.8-3.2 0-.4 0-.2-.1-.4z"/><path d="M-369.3 284.8c-.5-.1-.9-.2-1.3-.5s-.7-.6-1-1v-.1-.1h.2c.5.7 1.3 1.2 2.1 1.3.3 0 .7-.1.9-.3.3-.2.5-.4.7-.7l.1-.2.1.2s.4.8 1 .8 1-.4 1.6-1.3h.2l.1.1v.1c-.6 1-1.3 1.4-1.9 1.4-.2 0-.5-.1-.6-.3-.2-.1-.4-.3-.5-.5-.2.3-.5.5-.7.7-.3.3-.7.4-1 .4z"/><path fill="#F06351" d="M-357.8 281.1c-1.8 1.6-3.5 3.4-5.1 5.2-1.6 1.8-3.3 3.5-5.3 4.9-.2-.5-1.6-1.5-1.6-1.5s-3.1-2.1-5.2-3.8c-1.1-.9-2.2-1.9-3.1-3l-2-.1c2.9 4.2 7.1 7.3 12 8.8.9-.1 3.3-1.9 5.1-3.3 2.1-1.8 4.1-3.8 5.9-5.9.5-.6.9-1.3 1.1-2-1 .4-1.8.7-1.8.7z"/></g><g><defs><path id="c" d="M-294 272h101v18h-101z"/></defs><clipPath id="d"><use xlink:href="#c" overflow="visible"/></clipPath><g clip-path="url(#d)" fill="#111"><path d="M-292.7 288.5c-.9-1.3-1.3-2.8-1.3-4.3v-6.4c-.1-1.5.3-3.1 1.2-4.4.9-1 2.2-1.5 4.2-1.5s3.2.5 4 1.3c.9 1.1 1.3 2.4 1.2 3.8v1.5h-3.9v-1.8c0-.5 0-1-.2-1.5-.1-.2-.3-.4-.5-.5-.2-.1-.4-.2-.6-.1-.6 0-.9.2-1.1.5-.2.5-.3 1.1-.2 1.7v8.2c0 .6.1 1.1.3 1.6.2.4.6.5 1.1.5.6 0 .9-.2 1-.5.2-.5.3-1.1.2-1.6v-1.8h3.9v1.5c.1 1.4-.3 2.7-1.2 3.8-.8.9-2.1 1.4-4 1.4-1.9.1-3.3-.4-4.1-1.4zM-278.7 272.2h4.5l3.3 17.5h-3.6l-.6-3.7h-2.6l-.6 3.7h-3.7l3.3-17.5zm3.2 11.6l-.9-6.8-.9 6.8h1.8zM-268.2 275.2h-2.7v-2.9h9.4v2.8h-2.7v14.7h-4v-14.6zM-254.2 272.2h7v1.8h-4.5v5.8h3.6v1.8h-3.6v6.5h4.5v1.8h-7v-17.7zM-245.2 272.2h1.7l5.1 11.6v-11.6h2.1v17.5h-1.6l-5.2-12v12h-2.1v-17.5zM-233.9 272.2h7v1.8h-4.5v5.8h3.6v1.8h-3.6v6.5h4.5v1.8h-7v-17.7zM-224.9 272.2h3.6c1.4-.1 2.9.3 4 1.1.9.7 1.3 1.9 1.3 3.5 0 2.2-.7 3.6-2.2 4.1l2.5 8.8h-2.4l-2.4-8.2h-2v8.2h-2.5l.1-17.5zm3.4 7.6c.8.1 1.6-.2 2.3-.6.5-.4.7-1.2.7-2.3 0-.6-.1-1.1-.2-1.7-.2-.4-.5-.7-.9-.9-.5-.2-1.1-.3-1.7-.3h-1.1v5.8h.9zM-212.8 288.5c-.8-1.3-1.2-2.9-1.1-4.5v-5.8c0-1.1.1-2.2.4-3.3.3-.8.8-1.5 1.5-2 .9-.5 1.9-.7 2.9-.7 1.7 0 2.8.4 3.6 1.2.8 1.1 1.2 2.5 1.1 3.8v.6h-2.4v-.5c0-.6 0-1.3-.2-1.9-.1-.4-.3-.8-.6-1-.4-.3-1-.4-1.5-.4-.6 0-1.1.1-1.6.5-.2.2-.3.3-.4.6-.1.2-.2.4-.2.7-.1.7-.2 1.4-.2 2.1v6.5c-.1 1 .1 2 .5 2.9.3.6.9.8 1.9.8.4 0 .8 0 1.1-.2.3-.2.6-.4.8-.7.4-1 .6-2 .6-3.1v-1.2h-2.3v-1.8h4.6v8.7h-1.6l-.2-2c-.2.7-.6 1.3-1.2 1.7s-1.3.6-2 .6-1.3-.1-1.9-.4c-.7-.3-1.2-.7-1.6-1.2zM-199.3 283.6l-3.9-11.3h2.4l2.8 8.5 2.7-8.5h2.4l-3.9 11.3v6.2h-2.4l-.1-6.2z"/></g></g></svg>
