<svg width="101" height="18" xmlns="http://www.w3.org/2000/svg" fill="none"><g clip-path="url(#clip0)"><path d="M1.3 16.5C.4 15.3-.1 13.8 0 12.2V5.8c-.1-1.5.3-3 1.2-4.3C2.1.5 3.4 0 5.4 0c1.9 0 3.2.5 4 1.3.9 1.1 1.3 2.4 1.2 3.8v1.5H6.7V4.8c0-.5 0-1-.2-1.5-.1-.2-.3-.4-.5-.5-.2-.1-.4-.1-.6-.1-.6 0-1 .1-1.1.5-.2.6-.3 1.1-.3 1.7v8.3c0 .5.1 1.1.3 1.6.2.4.6.5 1.2.5.5 0 .8-.1 1-.5.2-.6.2-1.1.2-1.6v-1.9h3.9v1.5c.1 1.4-.3 2.8-1.2 3.9-.8.9-2.1 1.4-4 1.4-1.9-.1-3.3-.6-4.1-1.6zM15.3.2h4.5l3.3 17.6h-3.7l-.6-3.7h-2.6l-.6 3.7h-3.7L15.3.2zm3.2 11.6l-1-6.9-.9 6.9h1.9zM25.8 3.2h-2.6v-3h9.4v2.9h-2.7v14.7h-4.1V3.2zM39.8.2h6.9v1.9h-4.5v5.7h3.6v1.8h-3.6v6.5h4.5v1.7h-7V.2h.1zM48.8.2h1.7l5.1 11.6V.2h2.1v17.6h-1.6l-5.2-12v12h-2.1V.2zM60.1.2H67v1.9h-4.5v5.7h3.6v1.8h-3.6v6.5H67v1.7h-6.9V.2zM69.1.2h3.6c1.4-.1 2.9.3 4 1.1.9.7 1.3 1.9 1.3 3.5 0 2.3-.7 3.7-2.2 4.1l2.5 8.8h-2.4l-2.4-8.2h-2v8.2H69V.2h.1zm3.4 7.6c.9 0 1.7-.2 2.3-.6.5-.4.8-1.2.8-2.4 0-.5-.1-1.1-.3-1.6-.2-.4-.5-.8-.9-1-.5-.2-1.1-.3-1.7-.3h-1.1v5.8h.9v.1zM81.2 16.5c-.9-1.4-1.2-2.9-1.1-4.5V6.2c-.1-1.2.1-2.3.4-3.4.2-.8.7-1.5 1.5-2s1.9-.7 2.9-.6c1.6 0 2.8.3 3.5 1.2.9 1.1 1.2 2.5 1.1 3.8v.6h-2.3v-.5c0-.6-.1-1.3-.2-1.9-.1-.4-.3-.8-.6-1-.5-.3-1-.4-1.5-.4-.6 0-1.1.1-1.6.5-.2.1-.3.3-.4.5-.2.2-.2.5-.2.7-.1.7-.2 1.4-.2 2.1v6.5c-.1 1 .1 2 .5 2.9.3.6.9.9 1.9.9.4 0 .7 0 1.1-.2.3-.2.6-.4.8-.7.4-1 .6-2.1.5-3.1v-1.3H85V9.1h4.6v8.7H88l-.2-2c-.2.6-.6 1.2-1.2 1.6-.6.4-1.3.6-2 .6s-1.3-.1-1.9-.4c-.6-.2-1.1-.6-1.5-1.1zM94.7 11.6L90.8.3h2.4l2.7 8.5L98.6.3h2.4l-3.9 11.3v6.2h-2.3v-6.2h-.1z" fill="#111"/></g></svg>