<svg version="1.1" id="Layer_1" xmlns="http://www.w3.org/2000/svg" x="0" y="0" viewBox="-415 269.5 127.8 22.9" xml:space="preserve"><path fill="#111" d="M-413.4 290.6c-1.1-1.6-1.6-3.5-1.6-5.4V277c.1-1.9.4-3.9 1.5-5.6 1.1-1.3 2.8-1.9 5.3-1.9s4 .6 5.1 1.6c1.1 1.4 1.4 2.9 1.5 4.8v1.9h-4.9v-2.3c0-.6 0-1.3-.3-1.9-.1-.3-.4-.5-.6-.6-.3-.1-.6-.2-.8-.2-.8 0-1.1.3-1.4.7-.3.6-.3 1.4-.3 2.1V286c0 .8 0 1.4.3 2 .3.5.8.6 1.4.6.6 0 1.1-.3 1.3-.6.3-.6.2-1.4.3-2v-2.3h4.9v1.9c0 1.8-.4 3.4-1.5 4.8-1 1.1-2.7 1.8-5.1 1.8-2.2.1-4-.4-5.1-1.6zM-395.7 269.9h5.7l4.2 22.1h-4.5l-.8-4.7h-3.3l-.8 4.7h-4.7l4.2-22.1zm4.1 14.7l-1.1-8.6-1.1 8.6h2.2zM-382.4 273.6h-3.4v-3.7h11.9v3.5h-3.4V292h-5.1v-18.4zM-364.7 269.8h8.8v2.3h-5.7v7.3h4.5v2.3h-4.5v8.2h5.7v2.3h-8.8v-22.4zM-353.3 269.9h2.1l6.4 14.7v-14.7h2.7V292h-2l-6.6-15.2V292h-2.7v-22.1zM-339 269.8h8.8v2.3h-5.7v7.3h4.5v2.3h-4.5v8.2h5.7v2.3h-8.8v-22.4zM-327.9 269.8h4.7c2.7 0 3.9.4 5.1 1.5 1.1.9 1.6 2.5 1.6 4.6 0 2.8-.9 4.5-2.8 5.2l3.2 11.1h-3l-3-10.4h-2.5v10.4h-3.2l-.1-22.4zm4.4 9.8c.9 0 1.6-.2 2.4-.5.5-.2.9-.6 1.1-1 .2-.5.3-1.3.4-2.1 0-.8 0-1.4-.3-2.1-.1-.7-.9-1.1-1.1-1.2-.6-.2-1.2-.3-2.2-.3h-1.6v7.3h1.3v-.1zM-312.5 290.3c-1-1.7-1.4-3.7-1.4-5.7v-7.4c0-1.4.1-2.8.5-4.2.4-1 1-1.9 1.9-2.6 1.1-.6 2.4-.9 3.7-.9 2.2 0 3.6.5 4.6 1.5 1.1 1.4 1.5 3.2 1.4 4.9v.8h-3.1v-.7c0-.8-.1-1.7-.3-2.4-.1-.5-.4-1-.8-1.3-.5-.4-1.3-.5-1.9-.5-.8 0-1.4.1-2 .6-.3.3-.3.4-.5.8-.1.3-.2.5-.3.9-.1.9-.3 1.8-.3 2.7v8.3c0 1.3.1 2.6.6 3.7.4.8 1.1 1 2.4 1 .5 0 1 0 1.4-.3.4-.2.8-.5 1-.9.7-1.2.8-2.6.8-4v-1.5h-2.9v-2.3h5.9V292h-2l-.3-2.6c-.3.9-.8 1.7-1.5 2.2-.8.5-1.7.8-2.6.8s-1.7-.1-2.4-.5-1.4-.9-1.9-1.6zM-295.3 284.2l-4.9-14.3h3l3.5 10.7 3.4-10.7h3l-4.9 14.3v7.8h-3l-.1-7.8z"/></svg>