<svg xmlns="http://www.w3.org/2000/svg" viewBox="0 0 78 80"><path d="M64 18.9h-7.1c.5-.7.8-1.4 1.1-2.2.6-2 .4-4.1-.6-6-1-1.8-2.7-3.2-4.7-3.8-2-.6-4.1-.4-6 .6-3.7 2-6.3 6.2-7.7 9.1-1.5-2.9-4.1-7.1-7.7-9.1-3.8-2.1-8.6-.6-10.7 3.2-1.5 2.7-1.2 5.8.5 8.2H14c-1.8 0-3.2 1.4-3.2 3.2v9.5c0 1.7 1.4 3.2 3.2 3.2h.8v26.3c0 3.4 2.7 6.1 6.1 6.1h36c3.4 0 6.1-2.7 6.1-6.1V34.7h1c1.8 0 3.2-1.4 3.2-3.2V22c0-1.7-1.4-3.1-3.2-3.1zM47.9 9.7c1.3-.7 2.7-.8 4.1-.4 1.4.4 2.5 1.3 3.2 2.6.7 1.3.8 2.7.4 4.1-.4 1.2-1.1 2.2-2.2 2.9H40.7c1.1-2.5 3.6-7.3 7.2-9.2zm-25.1 2.2c1.4-2.6 4.7-3.6 7.4-2.2 3.6 1.9 6.1 6.7 7.2 9.2H24.5c-2.2-1.5-3.1-4.5-1.7-7zm15 22.8v13.8H17.3V34.7h20.5zM17.3 61.1V50.9h20.5v13.8H21c-2 0-3.7-1.6-3.7-3.6zM57 64.7H40.2V50.9h20.5V61c0 2.1-1.6 3.7-3.7 3.7zm3.7-16.2H40.2V34.7h20.5v13.8zm4.1-16.9c0 .4-.3.7-.7.7H14c-.4 0-.7-.3-.7-.7v-9.5c0-.4.3-.7.7-.7h50c.4 0 .7.3.7.7v9.5z" fill="#fff"/></svg>
